<?xml version="1.0" standalone="no"?>
<!DOCTYPE svg PUBLIC "-//W3C//DTD SVG 20010904//EN"
 "http://www.w3.org/TR/2001/REC-SVG-20010904/DTD/svg10.dtd">
<svg version="1.0" xmlns="http://www.w3.org/2000/svg"
 width="690.000000pt" height="690.000000pt" viewBox="0 0 690.000000 690.000000"
 preserveAspectRatio="xMidYMid meet">
<metadata>
Created by potrace 1.11, written by Peter Selinger 2001-2013
</metadata>
<g transform="translate(0.000000,690.000000) scale(0.100000,-0.100000)"
fill="#000000" stroke="none">
<path d="M387 4103 c-9 -10 -17 -13 -17 -7 0 13 -73 12 -82 -1 -5 -6 -8 -6 -8
1 0 11 -52 10 -70 -1 -5 -3 -12 0 -16 6 -5 8 -8 8 -14 0 -4 -7 -16 -13 -28
-14 -12 0 -19 -3 -17 -6 3 -2 -8 -15 -23 -27 -15 -13 -23 -24 -19 -24 4 0 3
-9 -3 -20 -8 -15 -8 -20 2 -20 10 0 10 -2 0 -9 -11 -6 -10 -10 3 -15 11 -4 15
-12 11 -23 -4 -10 -4 -14 0 -10 4 4 13 2 21 -4 7 -6 13 -8 13 -3 0 4 7 -1 16
-12 8 -10 12 -12 8 -4 -4 8 5 4 20 -10 14 -13 24 -30 21 -38 -2 -7 0 -10 5 -7
6 3 11 -2 12 -12 2 -24 5 -47 8 -53 6 -17 4 -58 -3 -53 -5 3 -4 -4 2 -15 15
-27 14 -55 -1 -46 -7 5 -8 3 -2 -7 12 -20 12 -209 -1 -209 -7 0 -7 -3 0 -8 13
-9 15 -223 2 -215 -5 3 -4 -4 2 -15 14 -27 14 -35 -1 -26 -10 6 -10 4 -2 -7
10 -14 10 -42 -1 -109 -3 -19 -6 -41 -7 -47 -1 -7 -5 -13 -10 -13 -5 0 -6 -5
-3 -11 8 -12 -34 -51 -46 -43 -5 3 -9 1 -9 -4 0 -5 -15 -17 -33 -27 -19 -10
-34 -23 -35 -29 -5 -38 -4 -54 3 -83 4 -18 11 -30 16 -27 5 3 9 -2 9 -10 0 -9
9 -16 21 -16 11 0 18 -4 15 -9 -4 -5 4 -7 16 -3 16 4 19 2 13 -9 -7 -12 -6
-12 7 -1 10 8 18 9 22 3 4 -6 13 -8 21 -4 9 3 22 0 30 -7 12 -10 15 -10 15 1
0 9 3 10 8 4 4 -6 45 -10 94 -9 59 0 85 -3 81 -10 -5 -8 -3 -8 8 0 8 6 37 10
64 9 28 -1 56 3 63 8 7 6 12 6 12 0 0 -5 9 -9 19 -9 11 0 17 4 15 8 -3 4 0 8
5 8 6 0 11 -6 11 -12 0 -10 2 -10 8 -1 4 7 28 13 52 15 25 2 51 7 58 11 6 5
17 5 22 2 6 -3 10 -1 10 5 0 7 6 10 13 7 15 -5 57 42 57 63 0 9 6 22 13 29 10
11 10 13 0 7 -9 -5 -13 0 -13 13 0 12 -4 21 -10 21 -5 0 -10 7 -10 16 0 8 -4
12 -10 9 -5 -3 -10 -1 -10 5 0 7 -7 10 -15 7 -8 -4 -17 -2 -20 4 -4 5 -11 7
-16 4 -5 -4 -9 -2 -9 4 0 6 -7 8 -15 5 -9 -4 -18 1 -22 12 -3 11 -11 22 -16
25 -5 4 -10 25 -10 48 -1 22 -5 41 -9 41 -11 0 -5 23 7 32 7 5 6 8 0 8 -6 0
-11 9 -12 20 -1 11 2 20 8 20 5 0 9 5 9 11 0 5 -4 8 -8 5 -5 -3 -9 24 -8 59 0
39 3 62 9 58 6 -3 7 -1 3 6 -4 6 0 18 8 27 11 11 16 12 16 3 0 -10 3 -10 12
-1 14 14 42 16 34 3 -4 -5 2 -7 12 -4 29 7 75 -15 68 -33 -3 -8 -2 -13 2 -10
4 3 14 -4 21 -16 10 -16 10 -19 -1 -12 -9 6 -9 3 1 -10 13 -15 13 -19 0 -27
-10 -6 -10 -9 -1 -9 6 0 12 -11 12 -25 0 -14 5 -25 10 -25 6 0 10 -4 10 -10 0
-5 9 -19 20 -30 11 -11 20 -15 20 -10 0 6 12 10 26 10 15 0 36 10 49 24 13 14
26 22 30 18 4 -4 5 -2 4 3 -2 6 2 20 9 33 7 12 10 22 6 22 -3 0 -1 6 5 13 6 8
8 17 4 20 -3 4 -2 7 4 7 5 0 9 14 8 30 -1 17 1 32 4 35 8 5 5 201 -4 245 -4
19 -8 42 -8 50 0 8 -6 21 -14 28 -7 8 -11 17 -8 22 3 4 -2 11 -11 14 -8 3 -12
11 -8 17 4 8 3 9 -4 5 -7 -4 -12 -2 -12 4 0 6 -4 8 -10 5 -5 -3 -10 -2 -10 3
0 12 -74 3 -78 -9 -2 -5 -8 -7 -13 -3 -5 3 -8 0 -7 -8 2 -7 -1 -12 -7 -11 -5
1 -10 -13 -11 -31 -1 -47 -40 -99 -70 -93 -13 2 -21 0 -18 -4 6 -11 -26 -7
-45 5 -9 6 -12 5 -7 -2 5 -8 -2 -8 -24 0 -20 7 -29 15 -26 24 3 8 2 14 -2 14
-11 0 -9 62 1 78 5 7 4 18 -2 26 -7 9 -7 16 1 24 9 9 9 12 -1 12 -10 0 -9 7 4
26 9 15 12 23 6 20 -6 -4 -11 -3 -11 3 0 5 5 13 10 16 6 4 8 11 5 16 -4 5 1
12 9 15 9 3 16 12 16 18 0 7 6 13 13 13 6 0 29 3 51 7 22 4 44 2 51 -4 8 -7
15 -7 19 -1 3 5 27 7 53 6 81 -6 136 -22 128 -36 -3 -5 2 -6 11 -2 12 4 15 3
10 -5 -5 -8 0 -12 13 -12 12 0 21 -7 21 -16 0 -8 4 -13 8 -10 4 3 21 -11 38
-31 52 -65 71 -83 77 -76 4 3 7 2 7 -4 0 -20 83 4 106 30 12 14 25 23 28 19 4
-3 4 1 0 11 -3 9 0 25 7 34 10 12 10 15 2 9 -15 -9 -15 -9 -4 31 6 21 6 35 -1
39 -5 3 -8 15 -5 25 3 11 1 19 -5 19 -6 0 -8 9 -5 20 3 13 1 18 -6 13 -6 -4
-8 0 -4 10 3 10 2 17 -4 17 -6 0 -7 5 -4 10 3 6 3 10 -2 10 -15 0 -32 49 -19
54 6 2 4 5 -5 5 -9 1 -26 14 -38 30 -19 24 -27 28 -64 25 -25 -2 -44 2 -49 9
-5 8 -8 5 -8 -8 0 -14 -3 -16 -12 -7 -7 7 -17 8 -30 1 -13 -7 -18 -6 -18 3 0
9 -3 9 -11 1 -8 -8 -20 -8 -35 -3 -13 5 -24 6 -24 2 0 -4 -9 -8 -20 -9 -13 -1
-18 2 -13 10 4 8 1 8 -9 -1 -11 -9 -18 -10 -23 -2 -3 6 -12 7 -18 3 -20 -12
-37 -12 -37 0 0 8 -3 9 -8 1 -10 -14 -84 -15 -75 0 4 6 -1 5 -10 -3 -13 -10
-20 -11 -30 -2 -10 8 -17 7 -25 -1 -8 -8 -16 -8 -28 3 -10 8 -15 9 -11 3 4 -8
-12 -11 -53 -11 -36 0 -60 5 -60 11 0 7 -3 8 -8 1 -11 -16 -46 -19 -36 -3 6 9
3 9 -10 -1 -15 -13 -19 -13 -27 0 -5 9 -9 9 -9 2 0 -11 -42 -9 -61 3 -4 2 -10
0 -13 -5 -3 -5 -15 -7 -26 -4 -11 3 -17 9 -14 14 8 14 0 10 -19 -8z"/>
<path d="M5840 3734 c0 -6 -19 -15 -42 -19 -56 -10 -51 -9 -65 -18 -7 -5 -18
-5 -25 -1 -7 4 -8 3 -4 -4 4 -7 -3 -14 -19 -18 -14 -3 -25 -10 -25 -15 0 -5
-7 -9 -15 -9 -8 0 -15 -5 -15 -11 0 -5 -5 -7 -12 -3 -6 4 -8 3 -5 -3 7 -11
-42 -49 -56 -45 -5 1 -6 -2 -3 -7 3 -5 0 -13 -7 -19 -23 -19 -41 4 -42 55 -2
66 -3 67 -22 90 -19 20 -66 25 -92 9 -11 -7 -12 -6 -6 5 7 11 6 12 -6 2 -8 -6
-27 -10 -41 -9 -15 2 -25 -1 -22 -6 4 -5 -2 -9 -12 -7 -11 1 -27 -1 -36 -6
-10 -4 -29 -8 -42 -9 -13 0 -22 -4 -19 -8 2 -5 -6 -8 -19 -8 -13 0 -29 -5 -36
-12 -9 -9 -12 -9 -12 2 0 12 -2 12 -9 2 -4 -7 -17 -14 -29 -15 -11 0 -19 -4
-16 -8 2 -4 -5 -9 -16 -12 -10 -3 -21 0 -24 7 -2 6 -5 3 -5 -6 -1 -17 -13 -23
-36 -18 -5 1 -7 -2 -2 -6 4 -4 1 -15 -7 -23 -8 -9 -17 -33 -19 -53 -3 -30 0
-38 19 -49 33 -17 53 -51 59 -99 3 -23 7 -46 10 -50 3 -5 1 -11 -5 -15 -6 -4
-7 -12 -3 -18 13 -19 12 -107 -1 -107 -7 0 -7 -3 -1 -8 14 -10 17 -32 4 -32
-8 0 -9 -4 0 -13 6 -8 8 -17 5 -20 -4 -4 -8 -31 -9 -62 -2 -31 -9 -62 -15 -70
-7 -8 -9 -15 -6 -15 4 0 -1 -14 -11 -30 -10 -17 -23 -28 -31 -25 -7 2 -11 1
-8 -4 3 -5 -7 -21 -22 -37 -15 -15 -21 -24 -13 -19 11 6 13 3 9 -13 -4 -12 1
-28 13 -40 10 -11 16 -23 13 -26 -2 -3 -1 -4 2 -2 3 3 25 -3 47 -12 23 -10 54
-17 70 -16 15 0 27 -2 27 -6 0 -4 14 -6 31 -4 22 3 28 0 23 -9 -6 -9 -4 -9 7
-1 8 6 53 10 102 10 48 -1 87 2 87 5 0 3 6 6 13 6 36 1 92 15 98 25 4 6 12 7
19 3 9 -5 11 -4 6 3 -4 7 -1 12 7 12 21 0 42 77 25 90 -3 3 -8 14 -10 25 -1
11 -7 23 -12 26 -13 10 -36 80 -23 72 6 -4 7 -1 2 6 -13 22 -15 85 -2 93 8 5
8 8 1 8 -13 0 -12 99 1 120 6 9 4 11 -5 5 -10 -6 -12 -4 -6 11 4 10 9 37 11
59 7 65 22 108 35 100 4 -3 10 1 13 8 6 16 63 21 73 6 5 -8 3 -9 -6 -4 -8 5
-11 4 -6 -3 4 -6 13 -9 21 -5 10 3 15 -2 15 -17 0 -11 5 -18 10 -15 6 3 10 -3
10 -14 0 -27 1 -32 11 -58 6 -16 5 -23 -4 -23 -8 0 -7 -4 3 -10 12 -7 13 -13
3 -28 -8 -14 -9 -22 -1 -30 8 -8 7 -16 -3 -28 -8 -10 -9 -15 -2 -11 15 9 14
-32 -1 -52 -8 -11 -8 -13 0 -8 7 4 11 -9 10 -38 0 -25 -4 -45 -8 -45 -5 0 -4
-9 2 -19 7 -14 7 -22 0 -26 -6 -4 -8 -11 -5 -16 4 -5 1 -9 -4 -9 -6 0 -11 -6
-11 -13 0 -6 -13 -25 -30 -40 -16 -16 -30 -36 -31 -45 0 -10 -2 -25 -4 -34 -2
-10 0 -18 4 -18 4 0 14 -11 21 -25 7 -13 17 -22 21 -19 4 2 10 0 14 -6 3 -5
22 -10 41 -10 19 0 34 -3 34 -7 0 -7 235 -10 250 -3 18 7 50 5 50 -4 0 -6 4
-5 9 3 5 7 14 10 20 7 6 -4 11 -3 11 3 0 5 18 12 40 16 22 4 40 11 40 16 0 6
5 7 12 3 7 -4 8 -3 4 5 -4 6 0 14 9 17 12 5 15 18 14 55 -2 27 -5 47 -7 44 -7
-6 -29 26 -42 60 -7 19 -7 24 2 19 7 -5 8 -3 3 7 -15 23 -23 99 -11 99 7 0 7
3 1 8 -13 9 -13 72 0 72 7 0 7 3 0 8 -5 4 -10 21 -10 37 0 17 5 33 10 37 6 5
5 8 -3 8 -7 0 -10 5 -7 10 4 6 7 31 7 55 0 41 35 118 48 106 3 -2 15 1 28 8
17 9 22 9 22 0 0 -7 3 -9 6 -6 12 11 64 -27 66 -48 1 -11 2 -27 3 -35 0 -8 3
-20 7 -25 3 -6 4 -19 2 -29 -1 -11 1 -27 6 -36 5 -9 4 -23 -1 -32 -6 -11 -5
-19 1 -23 8 -5 7 -11 -1 -21 -6 -8 -8 -14 -3 -14 10 0 11 -56 2 -66 -3 -3 -4
-21 -1 -41 3 -19 1 -33 -4 -30 -4 3 -9 -10 -10 -29 -3 -52 -6 -64 -15 -64 -5
0 -7 -3 -5 -7 7 -11 -19 -33 -29 -25 -4 4 -4 1 0 -5 4 -7 3 -21 -3 -31 -21
-40 37 -101 114 -119 11 -2 25 -5 30 -6 6 -2 15 -5 20 -8 6 -3 38 -5 72 -4 42
1 60 -2 56 -9 -5 -8 -3 -8 8 0 21 16 72 17 64 1 -4 -6 0 -4 8 6 10 12 17 15
22 7 4 -7 11 -8 18 -2 11 9 58 20 99 25 9 1 14 5 12 9 -3 4 1 8 9 8 8 0 18 7
21 16 3 8 10 12 16 9 6 -4 7 1 3 11 -4 10 -2 15 4 11 18 -11 9 57 -10 78 -44
48 -52 83 -52 242 0 91 3 149 9 146 5 -4 6 -1 0 8 -5 8 -9 55 -10 104 -1 50
-4 98 -9 108 -4 9 -4 24 -1 33 3 8 2 12 -4 9 -6 -3 -10 3 -10 14 0 12 -5 21
-11 21 -5 0 -7 5 -4 10 3 6 1 10 -4 10 -6 0 -11 7 -11 16 0 8 -4 12 -10 9 -9
-6 -14 8 -11 27 0 5 -2 7 -7 6 -10 -4 -72 26 -72 34 0 4 -7 4 -17 1 -12 -5
-14 -3 -8 7 6 10 4 12 -9 7 -10 -4 -23 -4 -29 0 -13 8 -137 12 -137 3 0 -3 -8
-6 -18 -7 -29 -2 -47 -8 -53 -16 -3 -5 -14 -9 -23 -11 -10 -1 -22 -9 -27 -17
-5 -8 -9 -11 -9 -6 0 4 -10 1 -23 -8 -13 -8 -27 -12 -32 -8 -4 5 -5 3 -1 -4 7
-12 -31 -40 -47 -35 -5 1 -6 -2 -3 -7 3 -5 -1 -14 -8 -20 -9 -8 -16 -8 -20 -2
-4 6 -13 8 -21 4 -9 -3 -15 1 -15 11 0 9 -4 16 -10 16 -5 0 -10 9 -10 20 0 11
-4 20 -10 20 -5 0 -19 8 -29 18 -36 32 -55 47 -58 45 -8 -7 -53 -2 -49 5 3 5
-15 7 -41 4 -31 -3 -48 0 -54 9 -5 8 -9 9 -9 3z"/>
<path d="M1870 3719 c0 -3 -13 -6 -30 -7 -60 -4 -70 -6 -70 -15 0 -5 -9 -7
-20 -4 -10 3 -24 -1 -31 -9 -6 -8 -15 -11 -20 -8 -5 3 -9 0 -9 -6 0 -6 -4 -8
-10 -5 -5 3 -10 2 -10 -3 0 -10 -37 -25 -53 -23 -5 1 -6 -3 -2 -9 3 -5 2 -10
-4 -10 -5 0 -22 -11 -37 -25 -15 -14 -32 -25 -37 -25 -6 0 -8 -3 -4 -6 3 -3
-9 -20 -26 -37 -18 -17 -31 -35 -29 -39 1 -5 -5 -11 -13 -14 -8 -4 -15 -12
-15 -19 0 -19 -26 -66 -33 -58 -4 3 -5 -4 -2 -16 2 -11 -3 -28 -11 -36 -9 -9
-11 -15 -4 -15 6 0 8 -5 3 -12 -4 -7 -9 -20 -11 -28 -5 -29 -3 -175 3 -200 4
-14 8 -33 8 -42 1 -10 5 -18 10 -18 5 0 7 -9 4 -20 -3 -11 -1 -18 4 -14 5 3 9
-1 9 -9 0 -8 7 -20 15 -27 9 -7 14 -15 12 -17 -2 -2 11 -20 29 -40 18 -20 30
-41 27 -46 -3 -6 -1 -7 5 -3 6 3 16 1 24 -6 55 -52 170 -107 238 -114 53 -6
64 -9 79 -18 10 -6 12 -5 7 3 -6 8 7 11 48 8 31 -2 58 -2 61 1 10 10 55 10 55
1 0 -6 8 -3 17 7 11 11 18 13 21 5 2 -7 9 -6 19 4 8 8 18 13 23 10 4 -3 20 2
36 10 15 7 31 12 36 9 4 -3 8 0 8 6 0 7 7 9 16 6 8 -3 12 -2 9 4 -3 5 6 12 20
16 14 3 25 10 25 16 0 5 5 6 10 3 6 -3 10 -2 10 4 0 5 8 12 18 15 22 7 116 96
131 125 7 12 17 18 23 15 6 -4 8 -3 5 3 -8 12 26 86 35 77 4 -3 4 3 1 15 -3
13 -1 21 8 21 7 0 9 3 6 7 -4 3 -1 13 6 21 7 10 8 13 1 9 -9 -5 -10 3 -4 28 4
19 5 36 2 39 -3 4 -1 6 5 6 5 0 10 7 10 15 0 8 -3 15 -6 15 -4 0 -7 17 -7 38
-1 20 -5 46 -9 56 -7 15 -5 17 6 11 9 -6 8 0 -5 19 -15 23 -16 30 -5 37 11 7
10 9 -4 9 -10 0 -15 5 -12 10 3 6 1 10 -4 10 -6 0 -11 9 -11 20 0 11 -5 20
-11 20 -6 0 -9 9 -6 20 3 12 1 18 -5 14 -10 -7 -45 35 -40 49 1 5 -2 6 -7 2
-6 -3 -16 3 -23 15 -7 11 -17 20 -21 20 -14 0 -37 27 -29 35 4 4 3 6 -3 5 -21
-5 -36 0 -30 10 3 5 0 7 -8 4 -8 -3 -21 2 -30 10 -8 8 -17 12 -21 9 -3 -4 -6
-1 -6 6 0 7 -4 10 -9 7 -5 -3 -14 0 -20 8 -7 8 -21 12 -33 8 -13 -3 -19 -1
-15 5 4 6 1 11 -6 10 -38 -1 -58 4 -51 14 5 8 1 8 -13 0 -11 -6 -23 -7 -27 -4
-8 9 -186 11 -186 2z m119 -269 c14 -19 21 -31 15 -27 -6 3 -11 0 -11 -8 0 -8
4 -12 9 -9 9 6 21 -21 18 -40 -1 -5 4 -12 11 -17 10 -6 10 -11 -1 -24 -11 -13
-11 -16 0 -13 14 3 29 -36 24 -64 -1 -10 2 -18 8 -18 6 0 4 -7 -3 -17 -11 -13
-11 -15 -1 -9 11 6 13 0 12 -25 -1 -19 -1 -37 0 -41 6 -21 5 -34 -2 -45 -5 -6
-5 -14 2 -18 6 -3 8 -11 5 -16 -4 -5 -8 -18 -10 -29 -5 -24 -30 -52 -39 -43
-3 4 -6 2 -6 -4 0 -11 -50 -10 -69 1 -6 4 -9 12 -6 17 3 5 -1 6 -10 3 -11 -5
-14 -2 -8 12 4 11 3 15 -4 11 -14 -9 -38 58 -27 74 4 8 3 9 -4 5 -10 -6 -19
12 -25 55 -2 8 -6 20 -10 27 -5 7 -3 12 5 12 11 0 11 2 0 9 -7 4 -14 23 -15
42 -1 19 -6 37 -11 41 -6 4 -4 14 5 24 10 13 11 16 1 10 -10 -6 -13 -3 -11 10
2 11 0 25 -4 32 -5 7 -3 12 4 12 9 0 10 3 2 11 -11 11 8 61 32 85 32 32 89 20
124 -26z"/>
<path d="M2951 3721 c-1 -9 -11 -12 -35 -9 -19 2 -32 0 -29 -5 3 -4 -1 -7 -8
-6 -8 1 -26 -1 -40 -5 -14 -4 -32 -9 -40 -10 -8 -2 -22 -6 -31 -10 -9 -4 -22
-9 -30 -10 -7 -1 -23 -7 -34 -14 -12 -6 -24 -8 -28 -5 -3 3 -6 2 -6 -3 0 -5
-18 -20 -39 -34 -22 -13 -43 -33 -46 -44 -9 -29 -11 -85 -4 -80 4 2 14 -5 24
-16 10 -11 24 -20 32 -20 8 0 12 -4 9 -9 -3 -5 0 -8 7 -7 6 0 13 -3 14 -8 1
-5 7 -12 14 -17 15 -9 21 -297 7 -306 -5 -2 -4 -11 3 -19 8 -10 8 -14 1 -14
-6 0 -9 -7 -6 -15 4 -8 1 -21 -5 -29 -6 -7 -8 -16 -4 -19 3 -4 1 -7 -6 -7 -7
0 -9 -4 -6 -10 3 -5 1 -10 -5 -10 -6 0 -24 -13 -39 -29 -16 -16 -31 -27 -34
-25 -7 8 -18 -30 -19 -66 -1 -35 47 -90 81 -93 12 -1 21 -4 21 -7 0 -3 12 -7
26 -8 15 -1 34 -8 42 -15 13 -9 14 -9 8 1 -8 13 6 17 18 5 7 -8 316 -11 316
-3 0 4 47 10 107 13 12 1 20 4 17 8 -2 4 7 10 21 13 14 4 25 11 25 17 0 6 5 7
10 4 6 -3 10 3 10 15 0 12 4 19 8 16 4 -2 7 7 6 22 -2 40 -15 82 -26 82 -5 0
-7 4 -4 9 3 5 0 8 -7 8 -20 -1 -77 24 -77 35 0 5 -4 6 -10 3 -5 -3 -10 1 -10
9 0 9 -5 16 -11 16 -6 0 -9 9 -6 19 2 10 1 25 -3 32 -5 7 -4 23 0 35 6 14 5
26 0 29 -6 4 -10 11 -10 16 0 6 5 7 12 3 7 -5 8 -3 2 7 -12 20 -12 121 0 138
9 12 8 13 -3 7 -10 -7 -12 -3 -6 15 4 13 8 28 9 34 2 19 21 32 38 27 10 -2 18
-9 18 -14 0 -5 5 -6 10 -3 6 3 10 1 10 -5 0 -13 30 -46 30 -33 1 4 9 -2 19
-14 10 -12 21 -19 25 -16 3 4 6 2 6 -4 0 -5 6 -10 13 -11 50 -7 96 -6 122 1
17 4 36 9 43 11 7 1 30 18 52 38 21 20 42 33 45 30 4 -4 5 -2 4 3 -7 23 12 54
29 49 12 -4 13 -3 5 3 -8 5 -10 19 -7 33 4 14 6 43 5 64 0 22 4 45 11 53 8 11
7 12 -6 7 -10 -4 -16 -1 -17 7 -2 32 -8 48 -28 68 -12 12 -19 27 -15 33 4 6 3
8 -3 5 -5 -4 -20 3 -31 14 -12 11 -22 17 -22 13 0 -3 -7 -1 -15 6 -8 6 -19 9
-25 5 -5 -3 -10 -3 -10 2 0 4 -20 8 -45 9 -25 1 -45 -3 -45 -8 0 -5 -4 -7 -8
-4 -5 3 -25 -3 -44 -14 -20 -10 -39 -17 -42 -14 -3 2 -4 1 -2 -2 3 -3 -15 -25
-39 -49 -24 -24 -41 -46 -39 -48 3 -3 -2 -7 -10 -10 -22 -9 -38 17 -39 68 -1
24 -5 45 -9 45 -5 0 -8 7 -8 16 0 10 -6 14 -15 10 -8 -3 -15 -2 -15 2 0 9 -91
9 -107 -1 -6 -4 -14 -1 -16 5 -4 10 -6 10 -6 -1z"/>
<path d="M3997 3723 c-1 -1 -33 -4 -71 -8 -38 -3 -72 -7 -75 -9 -3 -2 -31 -7
-61 -11 -30 -4 -69 -13 -87 -20 -17 -7 -35 -10 -39 -7 -4 4 -4 2 -1 -4 6 -11
-18 -29 -34 -26 -3 1 -5 -10 -3 -23 1 -14 -2 -25 -6 -25 -16 0 21 -59 41 -65
11 -4 16 -11 13 -17 -5 -7 -2 -9 7 -6 8 3 20 -1 27 -8 7 -8 10 -14 5 -14 -4 0
2 -7 13 -16 10 -8 12 -12 4 -8 -12 6 -13 5 -4 -7 16 -21 27 -82 12 -73 -7 5
-8 3 -3 -6 14 -23 16 -93 2 -102 -7 -5 -8 -8 -1 -8 13 0 13 -138 0 -159 -6 -9
-5 -12 2 -7 7 4 10 -4 10 -24 -1 -17 2 -33 5 -37 4 -3 1 -13 -6 -21 -10 -13
-9 -14 2 -7 11 6 13 3 9 -13 -4 -12 -2 -22 3 -22 5 0 9 -11 9 -24 0 -14 5 -28
10 -31 6 -4 8 -11 5 -16 -4 -5 -1 -9 5 -9 7 0 9 -7 6 -16 -3 -8 -2 -13 3 -10
11 7 23 -22 14 -36 -3 -6 -2 -9 3 -5 14 8 47 -20 38 -34 -4 -7 -3 -10 3 -6 11
7 63 -14 63 -25 0 -4 7 -5 15 -2 8 4 15 1 15 -5 0 -6 7 -8 17 -4 12 5 14 3 8
-8 -7 -12 -6 -12 7 -1 9 7 19 9 22 4 4 -7 91 -7 126 1 49 11 137 50 195 86 23
14 33 16 44 7 11 -8 13 -8 7 2 -4 6 -5 12 -2 12 3 0 10 -10 17 -21 9 -17 8
-20 -3 -13 -10 6 -11 5 -1 -8 7 -8 11 -17 8 -20 -3 -2 7 -16 22 -29 24 -20 38
-24 98 -24 39 0 76 4 83 8 7 5 12 3 12 -5 0 -8 3 -9 8 -3 8 11 13 13 64 18 18
2 39 7 46 11 7 4 17 4 22 1 6 -3 10 -2 10 4 0 5 9 8 20 6 11 -2 18 0 15 6 -6
9 15 13 44 10 7 -2 10 2 7 7 -3 5 10 17 29 26 20 10 33 21 30 27 -4 5 1 9 9 9
10 0 13 6 10 15 -4 8 -1 15 5 15 8 0 6 11 -5 32 -20 39 -39 59 -48 51 -3 -4
-6 1 -6 11 0 9 -4 15 -9 12 -13 -8 -24 22 -27 72 -2 27 2 42 9 42 9 0 8 3 0 8
-14 9 -13 68 1 91 6 10 5 12 -2 7 -7 -4 -12 -3 -12 3 0 5 6 12 13 14 10 4 10
6 0 6 -15 1 -17 37 -3 46 6 3 10 12 10 18 0 7 -4 6 -10 -3 -7 -11 -9 -8 -8 15
1 17 7 33 13 37 6 5 6 8 -2 8 -16 0 -14 70 1 70 7 0 6 3 -1 8 -14 9 -13 68 1
91 6 10 5 12 -2 7 -7 -4 -12 -3 -12 3 0 5 6 12 13 14 10 4 10 6 0 6 -15 1 -17
37 -3 46 6 4 6 12 0 23 -5 9 -14 31 -21 49 -7 17 -17 29 -21 27 -4 -3 -8 3 -8
13 0 14 -2 15 -9 4 -5 -7 -11 -9 -14 -4 -4 6 -42 8 -89 5 -46 -3 -98 -5 -115
-5 -18 0 -33 -5 -33 -11 0 -6 -5 -4 -10 4 -7 12 -10 12 -10 1 0 -8 -6 -11 -16
-7 -9 4 -23 1 -30 -5 -11 -9 -14 -8 -14 2 0 11 -2 11 -9 1 -4 -7 -24 -14 -44
-15 -21 -1 -37 -6 -37 -10 0 -5 -6 -7 -12 -5 -7 3 -19 -1 -26 -9 -8 -7 -19
-10 -25 -6 -7 3 -9 2 -4 -2 4 -5 1 -18 -7 -30 -8 -12 -13 -28 -12 -36 5 -24
25 -69 31 -69 4 0 3 5 -1 12 -4 6 5 3 19 -8 15 -10 27 -23 27 -27 0 -5 6 -5
13 -1 8 5 7 2 -2 -9 -12 -15 -12 -17 1 -12 10 4 17 -2 21 -17 4 -13 2 -24 -3
-26 -6 -2 -10 -8 -10 -13 0 -6 4 -8 9 -5 5 3 9 -19 10 -49 0 -31 3 -60 6 -65
3 -6 2 -10 -4 -10 -6 0 -6 -11 -1 -29 6 -21 5 -31 -3 -35 -8 -3 -8 -5 1 -5 7
-1 10 -6 7 -11 -4 -6 -7 -32 -7 -58 -1 -26 -6 -53 -12 -61 -8 -11 -8 -13 1 -8
7 5 9 0 6 -13 -3 -11 -9 -17 -14 -14 -5 3 -6 -2 -3 -11 9 -21 -23 -54 -47 -50
-11 2 -17 0 -14 -6 15 -23 -56 -7 -84 19 -32 29 -54 80 -30 68 9 -5 9 -3 -1 6
-19 17 -26 83 -8 72 10 -6 11 -4 1 7 -16 17 -17 43 -1 33 7 -5 8 -3 2 7 -11
18 -14 369 -2 369 4 0 8 5 8 11 0 5 -4 8 -9 5 -11 -7 -9 55 3 73 6 10 5 12 -2
7 -16 -10 -15 16 1 33 10 11 9 12 -1 7 -7 -4 -20 -2 -28 5 -13 10 -149 21
-157 12z"/>
</g>
</svg>
